<?xml version="1.0" standalone="no"?>
<!DOCTYPE svg PUBLIC "-//W3C//DTD SVG 20010904//EN"
 "http://www.w3.org/TR/2001/REC-SVG-20010904/DTD/svg10.dtd">
<svg version="1.0" xmlns="http://www.w3.org/2000/svg"
 width="440.000000pt" height="440.000000pt" viewBox="0 0 440.000000 440.000000"
 preserveAspectRatio="xMidYMid meet">
<metadata>
Created by potrace 1.12, written by Peter Selinger 2001-2015
</metadata>
<g transform="translate(0.000000,440.000000) scale(0.100000,-0.100000)"
fill="#000000" stroke="none">
<path d="M1880 2356 c0 -3 -24 -68 -54 -146 l-55 -141 37 3 c33 3 37 7 58 58
l22 55 60 3 c52 3 61 6 66 25 9 36 8 37 -49 37 l-55 0 12 25 c10 23 17 25 74
25 60 0 62 1 73 30 l10 30 -100 0 c-54 0 -99 -2 -99 -4z"/>
<path d="M2070 2278 c-18 -46 -43 -111 -56 -146 l-24 -63 36 3 c36 3 37 4 71
93 19 49 35 91 37 92 2 2 20 -38 41 -89 21 -51 46 -113 57 -138 l19 -45 70
180 c38 99 69 183 69 187 0 5 -15 8 -33 8 -33 0 -33 -1 -67 -95 -19 -52 -38
-95 -41 -95 -4 0 -22 42 -42 93 -34 90 -36 92 -70 95 l-35 3 -32 -83z"/>
<path d="M2405 2330 l-16 -30 46 0 c25 0 45 -3 45 -7 0 -5 -30 -47 -138 -190
l-24 -33 124 0 c124 0 125 0 136 25 7 14 12 28 12 30 0 2 -32 5 -71 7 l-71 3
81 107 c45 59 81 110 81 113 0 3 -43 5 -95 5 l-94 0 -16 -30z"/>
</g>
</svg>
